# xmcd
#
# Track frame offsets: 
#        150
#        14660
#        28819
#        40291
#        55156
#        68523
#        80720
#        93915
#        108474
#        120961
#        134835
#        148321
#        161695
#        177647
#        191171
#        203693
#        215734
#        226775
#
# Disc length: 3299 seconds
#
# Revision: 2
# Processed by: cddbd v1.5.2PL0 Copyright (c) Steve Scherf et al.
# Submitted via: ExactAudioCopyFreeDBPlugin 1.0
#
DISCID=0e0ce112
DTITLE=Various Artist - Blues Spirit
DYEAR=2004
DGENRE=Blues
TTITLE0=John Lee Hooker - Four Woman In My Life
TTITLE1=Muddy Waters - I Fell Like Going Home
TTITLE2=Lightnin' Hopkins - Can't Do Like You Used To
TTITLE3=Bessie Smith - Aggravatin' Papa
TTITLE4=Big Billy Broonzy - Big Billy Blues
TTITLE5=Blind Boy Fuller - I Want Some Of Your Pie
TTITLE6=Alice Moore - Grass Cutter Blues
TTITLE7=Blind Boy - Baby You Gotta Change Your Mind
TTITLE8=John Lee Williamson - Good Gal Blues
TTITLE9=Big Bill Broonzy - Horny Frog
TTITLE10=Brownie McGhee - Death Of Blind Boy Fuller
TTITLE11=Big Joe Turner - I'm In Sharp When I Hit The Cost
TTITLE12=Jelly Roll Morton - Harmony Blues
TTITLE13=Blind Boy Fuller - Brownskin Sugar Plum
TTITLE14=Sonny Terry - Train Whistle Blues
TTITLE15=Lightnin' Hopkins - Come Back Baby
TTITLE16=Big Joe Turner - Nobody In My Mind
TTITLE17=Laurindo Aleida Bud Shank - Noctambulism
EXTD=
EXTT0=
EXTT1=
EXTT2=
EXTT3=
EXTT4=
EXTT5=
EXTT6=
EXTT7=
EXTT8=
EXTT9=
EXTT10=
EXTT11=
EXTT12=
EXTT13=
EXTT14=
EXTT15=
EXTT16=
EXTT17=
PLAYORDER=
